<svg xmlns="http://www.w3.org/2000/svg" viewBox="0 0 100 100" fill="none">
  <!-- Top cylinder ellipse -->
  <ellipse cx="50" cy="30" rx="33" ry="16" stroke="#10b981" stroke-width="6.5" stroke-linecap="round" stroke-linejoin="round"/>
  
  <!-- Code brackets in top ellipse: < / > -->
  <path d="M 43 24 L 35 30 L 43 36" stroke="#10b981" stroke-width="5.5" stroke-linecap="round" stroke-linejoin="round"/>
  <path d="M 53 23 L 47 38" stroke="#10b981" stroke-width="5.5" stroke-linecap="round" stroke-linejoin="round"/>
  <path d="M 57 24 L 65 30 L 57 36" stroke="#10b981" stroke-width="5.5" stroke-linecap="round" stroke-linejoin="round"/>
  
  <!-- Middle cylinder tier -->
  <path d="M 17 30 L 17 53" stroke="#10b981" stroke-width="6.5" stroke-linecap="round"/>
  <path d="M 83 30 L 83 53" stroke="#10b981" stroke-width="6.5" stroke-linecap="round"/>
  <path d="M 17 53 C 17 69 83 69 83 53" stroke="#10b981" stroke-width="6.5" stroke-linecap="round" stroke-linejoin="round"/>
  
  <!-- Middle slot indicators: Dash & Dot -->
  <path d="M 39 53 H 51" stroke="#10b981" stroke-width="5.5" stroke-linecap="round"/>
  <circle cx="60" cy="53" r="2.75" fill="#10b981"/>
  
  <!-- Bottom cylinder tier -->
  <path d="M 17 53 L 17 76" stroke="#10b981" stroke-width="6.5" stroke-linecap="round"/>
  <path d="M 83 53 L 83 76" stroke="#10b981" stroke-width="6.5" stroke-linecap="round"/>
  <path d="M 17 76 C 17 92 83 92 83 76" stroke="#10b981" stroke-width="6.5" stroke-linecap="round" stroke-linejoin="round"/>
  
  <!-- Bottom slot indicators: Dot & Dash -->
  <circle cx="40" cy="76" r="2.75" fill="#10b981"/>
  <path d="M 49 76 H 61" stroke="#10b981" stroke-width="5.5" stroke-linecap="round"/>
</svg>
